<svg width="31" height="33" viewBox="0 0 31 33" fill="none" xmlns="http://www.w3.org/2000/svg">
<path d="M26 16C26 15.4477 26.4477 15 27 15H30C30.5523 15 31 15.4477 31 16C31 16.5523 30.5523 17 30 17H27C26.4477 17 26 16.5523 26 16Z" fill="white"/>
<path d="M0 16C0 15.4477 0.447715 15 1 15H4C4.55228 15 5 15.4477 5 16C5 16.5523 4.55228 17 4 17H1C0.447715 17 0 16.5523 0 16Z" fill="white"/>
<path d="M15.5 5.5C14.9477 5.5 14.5 5.05228 14.5 4.5V1.5C14.5 0.947715 14.9477 0.5 15.5 0.5C16.0523 0.5 16.5 0.947715 16.5 1.5V4.5C16.5 5.05228 16.0523 5.5 15.5 5.5Z" fill="white"/>
<path d="M22.9246 23.4246C23.3151 23.0341 23.9483 23.0341 24.3388 23.4246L26.4601 25.546C26.8507 25.9365 26.8507 26.5696 26.4601 26.9602C26.0696 27.3507 25.4365 27.3507 25.0459 26.9602L22.9246 24.8389C22.5341 24.4483 22.5341 23.8152 22.9246 23.4246Z" fill="white"/>
<path d="M4.53984 5.03984C4.93037 4.64932 5.56353 4.64932 5.95405 5.03984L8.07538 7.16116C8.4659 7.55168 8.4659 8.18485 8.07538 8.57537C7.68485 8.9659 7.05169 8.9659 6.66116 8.57537L4.53984 6.45405C4.14932 6.06353 4.14932 5.43036 4.53984 5.03984Z" fill="white"/>
<path d="M22.9246 8.57539C22.5341 8.18487 22.5341 7.5517 22.9246 7.16118L25.046 5.03986C25.4365 4.64933 26.0696 4.64933 26.4602 5.03986C26.8507 5.43038 26.8507 6.06355 26.4602 6.45407L24.3389 8.57539C23.9483 8.96592 23.3152 8.96592 22.9246 8.57539Z" fill="white"/>
<path d="M4.53984 26.9602C4.14932 26.5696 4.14932 25.9365 4.53984 25.5459L6.66116 23.4246C7.05168 23.0341 7.68485 23.0341 8.07537 23.4246C8.4659 23.8151 8.4659 24.4483 8.07537 24.8388L5.95405 26.9602C5.56353 27.3507 4.93036 27.3507 4.53984 26.9602Z" fill="white"/>
<path d="M15.5 8C11.3645 8 8 11.4419 8 15.6726C8 17.6811 8.75356 19.5801 10.1217 21.0203C11.2687 22.2268 11.9 23.849 11.9 25.5884V30.1586C11.9 30.7109 12.3477 31.1586 12.9 31.1586H13.7V32C13.7 32.5523 14.1477 33 14.7 33H16.3C16.8523 33 17.3 32.5523 17.3 32V31.1586H18.1C18.6523 31.1586 19.1 30.7109 19.1 30.1586V25.5884C19.1 23.8494 19.7315 22.2268 20.8783 21.0203C22.2464 19.5801 23 17.6811 23 15.6726C23 11.4419 19.6355 8 15.5 8ZM17.3 29.3171H13.7V26.4757H17.3V29.3171Z" fill="white"/>
</svg>








