<svg width="18" height="17" viewBox="0 0 18 17" fill="none" xmlns="http://www.w3.org/2000/svg">
<path d="M2.93829 5.42839H0.587672C0.264516 5.42839 0 5.68751 0 6.00696V16.4216C0 16.741 0.263356 17.0001 0.587672 17.0001H2.93829C3.26261 17.0001 3.52596 16.7409 3.52596 16.4216V6.00696C3.52596 5.68751 3.26141 5.42839 2.93829 5.42839Z" />
<path d="M16.5327 5.42825C16.438 5.41246 12.0067 5.42825 12.0067 5.42825L12.6256 3.76567C13.0527 2.61739 12.7762 0.864086 11.5912 0.240758C11.2054 0.037782 10.6663 -0.0641561 10.2316 0.0435625C9.98238 0.105314 9.76332 0.267792 9.63275 0.485479C9.4826 0.735841 9.4981 1.02809 9.44463 1.30569C9.30903 2.00981 8.97111 2.67928 8.44781 3.18177C7.53543 4.05788 4.70117 6.58539 4.70117 6.58539V15.8429H14.4955C15.8171 15.8437 16.6832 14.3906 16.0313 13.2555C16.8083 12.7656 17.0741 11.7336 16.619 10.9412C17.396 10.4512 17.6617 9.4192 17.2067 8.62682C18.5473 7.78144 18.0991 5.6891 16.5327 5.42825Z" />
</svg>








