<svg width="102" height="21" viewBox="0 0 102 21" fill="none" xmlns="http://www.w3.org/2000/svg">
<path d="M4.00769 20H0.284546V2.15332H10.514V5.25391H4.00769V9.85596H10.0624V12.9443H4.00769V20ZM21.3295 6.09619C21.834 6.09619 22.2531 6.13281 22.5868 6.20605L22.306 9.69727C22.0049 9.61589 21.6387 9.5752 21.2074 9.5752C20.0192 9.5752 19.0915 9.88037 18.4242 10.4907C17.765 11.1011 17.4354 11.9556 17.4354 13.0542V20H13.7123V6.35254H16.5321L17.0814 8.64746H17.2645C17.6877 7.88249 18.2574 7.26807 18.9735 6.8042C19.6978 6.33219 20.4831 6.09619 21.3295 6.09619ZM30.7167 8.74512C29.9273 8.74512 29.3088 8.9974 28.8612 9.50195C28.4136 9.99837 28.1573 10.7064 28.0922 11.626H33.3168C33.3005 10.7064 33.0604 9.99837 32.5966 9.50195C32.1327 8.9974 31.5061 8.74512 30.7167 8.74512ZM31.2416 20.2441C29.0443 20.2441 27.3272 19.6379 26.0902 18.4253C24.8532 17.2127 24.2347 15.4956 24.2347 13.2739C24.2347 10.9871 24.8044 9.22119 25.9437 7.97607C27.0912 6.72282 28.674 6.09619 30.6923 6.09619C32.621 6.09619 34.1224 6.64551 35.1967 7.74414C36.2709 8.84277 36.808 10.3605 36.808 12.2974V14.104H28.0067C28.0474 15.1619 28.3607 15.988 28.9467 16.582C29.5326 17.1761 30.3545 17.4731 31.4125 17.4731C32.2344 17.4731 33.0116 17.3877 33.744 17.2168C34.4764 17.0459 35.2414 16.7733 36.0389 16.3989V19.2798C35.3879 19.6053 34.6921 19.8454 33.9515 20C33.211 20.1628 32.3077 20.2441 31.2416 20.2441ZM45.4872 8.74512C44.6978 8.74512 44.0793 8.9974 43.6317 9.50195C43.1841 9.99837 42.9278 10.7064 42.8627 11.626H48.0873C48.071 10.7064 47.8309 9.99837 47.3671 9.50195C46.9032 8.9974 46.2766 8.74512 45.4872 8.74512ZM46.0121 20.2441C43.8148 20.2441 42.0977 19.6379 40.8607 18.4253C39.6237 17.2127 39.0052 15.4956 39.0052 13.2739C39.0052 10.9871 39.5749 9.22119 40.7142 7.97607C41.8617 6.72282 43.4445 6.09619 45.4628 6.09619C47.3915 6.09619 48.8929 6.64551 49.9672 7.74414C51.0414 8.84277 51.5785 10.3605 51.5785 12.2974V14.104H42.7772C42.8179 15.1619 43.1312 15.988 43.7172 16.582C44.3031 17.1761 45.125 17.4731 46.183 17.4731C47.0049 17.4731 47.7821 17.3877 48.5145 17.2168C49.2469 17.0459 50.0119 16.7733 50.8094 16.3989V19.2798C50.1584 19.6053 49.4626 19.8454 48.722 20C47.9815 20.1628 47.0782 20.2441 46.0121 20.2441Z" fill="black"/>
<path d="M65.4335 15.0439C65.4335 16.6553 64.8516 17.9248 63.6879 18.8525C62.5323 19.7803 60.9209 20.2441 58.8539 20.2441C56.9496 20.2441 55.265 19.8861 53.8002 19.1699V15.6543C55.0046 16.1914 56.0219 16.5698 56.8519 16.7896C57.6901 17.0093 58.4551 17.1191 59.1469 17.1191C59.9769 17.1191 60.6117 16.9604 61.0511 16.6431C61.4987 16.3257 61.7225 15.8537 61.7225 15.2271C61.7225 14.8771 61.6249 14.5679 61.4296 14.2993C61.2343 14.0226 60.9454 13.7581 60.5629 13.5059C60.1885 13.2536 59.4195 12.8507 58.2557 12.2974C57.1652 11.7847 56.3474 11.2923 55.8021 10.8203C55.2569 10.3483 54.8215 9.79899 54.496 9.17236C54.1705 8.54574 54.0077 7.81331 54.0077 6.9751C54.0077 5.39632 54.5407 4.15527 55.6068 3.25195C56.681 2.34863 58.1622 1.89697 60.0502 1.89697C60.9779 1.89697 61.8609 2.00684 62.6991 2.22656C63.5455 2.44629 64.4284 2.75553 65.348 3.1543L64.1273 6.09619C63.1752 5.70557 62.3858 5.43294 61.7592 5.27832C61.1407 5.1237 60.5303 5.04639 59.9281 5.04639C59.212 5.04639 58.6626 5.21322 58.2802 5.54688C57.8977 5.88053 57.7064 6.31592 57.7064 6.85303C57.7064 7.18669 57.7837 7.47965 57.9384 7.73193C58.093 7.97607 58.3371 8.21615 58.6708 8.45215C59.0126 8.68001 59.8142 9.09505 61.0756 9.69727C62.7439 10.4948 63.8872 11.2964 64.5057 12.1021C65.1242 12.8996 65.4335 13.8802 65.4335 15.0439ZM71.3417 13.1519C71.3417 14.5028 71.5614 15.5241 72.0009 16.2158C72.4484 16.9076 73.1727 17.2534 74.1737 17.2534C75.1665 17.2534 75.8786 16.9116 76.3099 16.228C76.7494 15.5363 76.9691 14.5109 76.9691 13.1519C76.9691 11.8009 76.7494 10.7878 76.3099 10.1123C75.8705 9.43685 75.1503 9.09912 74.1493 9.09912C73.1565 9.09912 72.4403 9.43685 72.0009 10.1123C71.5614 10.7796 71.3417 11.7928 71.3417 13.1519ZM80.7777 13.1519C80.7777 15.3735 80.1918 17.111 79.0199 18.3643C77.848 19.6175 76.2163 20.2441 74.1249 20.2441C72.8147 20.2441 71.6591 19.9593 70.6581 19.3896C69.6571 18.8118 68.8881 17.9858 68.351 16.9116C67.8138 15.8374 67.5453 14.5841 67.5453 13.1519C67.5453 10.922 68.1272 9.18864 69.2909 7.95166C70.4546 6.71468 72.0904 6.09619 74.1981 6.09619C75.5083 6.09619 76.6639 6.38102 77.6649 6.95068C78.6659 7.52035 79.4349 8.33822 79.972 9.4043C80.5092 10.4704 80.7777 11.7196 80.7777 13.1519ZM91.3978 9.14795H88.1752V20H84.452V9.14795H82.4012V7.35352L84.452 6.35254V5.35156C84.452 3.7972 84.8345 2.66195 85.5995 1.9458C86.3645 1.22965 87.5892 0.871582 89.2738 0.871582C90.5596 0.871582 91.703 1.06283 92.704 1.44531L91.7518 4.17969C91.0031 3.94368 90.3114 3.82568 89.6766 3.82568C89.1477 3.82568 88.7652 3.98438 88.5292 4.30176C88.2932 4.611 88.1752 5.00977 88.1752 5.49805V6.35254H91.3978V9.14795ZM99.2958 17.2778C99.9468 17.2778 100.728 17.1354 101.64 16.8506V19.6216C100.712 20.0366 99.5725 20.2441 98.2216 20.2441C96.7323 20.2441 95.6459 19.8698 94.9623 19.1211C94.2868 18.3643 93.9491 17.2331 93.9491 15.7275V9.14795H92.1669V7.57324L94.2177 6.32812L95.2919 3.44727H97.6722V6.35254H101.493V9.14795H97.6722V15.7275C97.6722 16.2565 97.8187 16.6471 98.1117 16.8994C98.4128 17.1517 98.8075 17.2778 99.2958 17.2778Z" fill="#FD6F29"/>
</svg>

