<svg width="92" height="129" viewBox="0 0 92 129" fill="none" xmlns="http://www.w3.org/2000/svg">
<path fill-rule="evenodd" clip-rule="evenodd" d="M31.334 31.8253C31.9763 30.4921 33.1762 29.5119 34.6107 29.1485L69.2631 20.3699C71.7056 19.7511 74.2269 21.0465 75.1462 23.3924L88.6297 57.7986C89.1596 59.1507 89.0754 60.6665 88.399 61.9517L56.5377 122.488C53.479 128.3 46.3171 130.573 40.4668 127.589L6.55057 110.292C0.741065 107.329 -1.63878 100.269 1.1916 94.3938L31.334 31.8253ZM21.6519 85.4526L25.1884 82.9906C25.3749 82.8608 25.5833 82.8164 25.8135 82.8577C26.0436 82.8989 26.2236 83.0128 26.3535 83.1994L27.5225 84.8785C27.6524 85.0651 27.6967 85.2735 27.6555 85.5036C27.6143 85.7338 27.5004 85.9138 27.3138 86.0437L23.7774 88.5056L30.3839 97.9954C30.5138 98.182 30.5581 98.3904 30.5169 98.6205C30.4757 98.8507 30.3618 99.0307 30.1752 99.1606L28.2416 100.507C28.055 100.637 27.8467 100.681 27.6165 100.64C27.3864 100.598 27.2063 100.485 27.0765 100.298L20.4699 90.8082L18.7908 91.9771C18.6042 92.107 18.3958 92.1514 18.1657 92.1101C17.9355 92.0689 17.7555 91.955 17.6256 91.7684L16.4566 90.0893C16.3267 89.9027 16.2824 89.6943 16.3236 89.4642C16.3649 89.234 16.4788 89.054 16.6653 88.9241L18.3445 87.7551L17.5475 86.6103C16.9807 85.7961 16.6212 85.0265 16.469 84.3015C16.305 83.5595 16.3195 82.8569 16.5125 82.1937C16.7055 81.5305 17.0542 80.9101 17.5586 80.3323C18.0798 79.7428 18.7221 79.1823 19.4854 78.651L21.5462 77.2163C21.7327 77.0864 21.9411 77.0421 22.1713 77.0833C22.4014 77.1245 22.5814 77.2384 22.7113 77.425L23.8803 79.1042C24.0102 79.2908 24.0545 79.4991 24.0133 79.7293C23.9721 79.9594 23.8582 80.1395 23.6716 80.2693L21.8652 81.5269C21.2207 81.9756 20.8115 82.4367 20.6376 82.9104C20.4518 83.367 20.5833 83.9176 21.032 84.5621L21.6519 85.4526ZM36.3395 79.7602C35.3218 80.4687 34.7434 81.2113 34.6043 81.9881C34.4703 82.7361 34.7575 83.6189 35.466 84.6366L40.0711 91.2515C40.201 91.4381 40.2453 91.6464 40.2041 91.8766C40.1629 92.1068 40.049 92.2868 39.8624 92.4167L37.9288 93.7628C37.7422 93.8926 37.5339 93.937 37.3037 93.8958C37.0736 93.8545 36.8935 93.7406 36.7637 93.5541L28.5099 81.6981C28.38 81.5116 28.3357 81.3032 28.3769 81.073C28.4182 80.8429 28.5321 80.6629 28.7186 80.533L30.6522 79.1869C30.8388 79.057 31.0471 79.0127 31.2773 79.0539C31.5075 79.0951 31.6875 79.209 31.8174 79.3956L32.2247 79.9808C32.3823 79.2667 32.6303 78.6282 32.9687 78.0653C33.324 77.4905 33.9088 76.9198 34.7229 76.353L35.8678 75.5559C36.0544 75.4261 36.2627 75.3817 36.4929 75.423C36.723 75.4642 36.9031 75.5781 37.0329 75.7647L38.2019 77.4438C38.3318 77.6304 38.3761 77.8388 38.3349 78.0689C38.2937 78.2991 38.1798 78.4791 37.9932 78.609L36.3395 79.7602ZM42.4104 80.822C41.7492 79.8721 41.2735 78.8813 40.9832 77.8495C40.6812 76.8007 40.589 75.782 40.7066 74.7936C40.8125 73.7882 41.1231 72.8417 41.6384 71.9541C42.1706 71.0548 42.9117 70.2745 43.8615 69.6132C44.8113 68.952 45.7919 68.5338 46.8031 68.3586C47.8195 68.1547 48.8057 68.1606 49.7617 68.3764C50.7059 68.5752 51.5997 68.9729 52.443 69.5693C53.2915 70.137 54.0168 70.8533 54.619 71.7184L55.4161 72.8632C55.5459 73.0498 55.5903 73.2582 55.549 73.4883C55.5078 73.7185 55.3939 73.8985 55.2073 74.0284L46.7098 79.9442C46.9813 80.3343 47.2997 80.6288 47.6649 80.8279C48.0353 80.9981 48.427 81.0906 48.84 81.1052C49.2531 81.1198 49.6732 81.054 50.1002 80.9078C50.5272 80.7616 50.9273 80.5586 51.3005 80.2988C51.8432 79.921 52.2488 79.5631 52.5172 79.2252C52.7738 78.8703 52.9533 78.5313 53.0557 78.2082C53.1478 77.9426 53.2355 77.743 53.3188 77.6095C53.4021 77.4759 53.5455 77.3383 53.7491 77.1966L55.7844 75.7797C55.971 75.6498 56.1793 75.6055 56.4095 75.6467C56.6566 75.6761 56.8366 75.79 56.9496 75.9884C57.0979 76.2377 57.1748 76.6374 57.1801 77.1877C57.2024 77.7262 57.0916 78.3447 56.8477 79.0433C56.6038 79.7419 56.2058 80.4723 55.6535 81.2345C55.1183 81.9848 54.3757 82.6906 53.4259 83.3519C52.4761 84.0131 51.4989 84.4542 50.4943 84.6751C49.4949 84.8672 48.5113 84.8469 47.5434 84.6141C46.5756 84.3814 45.6582 83.9498 44.7913 83.3195C43.9125 82.6721 43.1189 81.8396 42.4104 80.822ZM45.9869 72.6663C45.495 73.0087 45.1241 73.3802 44.8742 73.7808C44.6295 74.1527 44.471 74.54 44.3989 74.9428C44.3149 75.3286 44.3055 75.7129 44.3705 76.0957C44.4407 76.4497 44.5474 76.7658 44.6906 77.0438L50.4405 73.0409C50.2294 72.8101 49.9786 72.5944 49.6879 72.3939C49.4023 72.1646 49.0726 72.0165 48.6986 71.9495C48.3297 71.8537 47.92 71.862 47.4693 71.9742C47.0238 72.0577 46.5297 72.2884 45.9869 72.6663ZM57.0196 70.6515C56.3584 69.7016 55.8827 68.7108 55.5924 67.679C55.2904 66.6302 55.1982 65.6115 55.3158 64.6231C55.4217 63.6177 55.7323 62.6712 56.2476 61.7836C56.7798 60.8843 57.5209 60.104 58.4707 59.4428C59.4205 58.7815 60.4011 58.3633 61.4123 58.1881C62.4287 57.9842 63.4149 57.9901 64.3709 58.2059C65.3151 58.4047 66.2089 58.8024 67.0522 59.3988C67.9007 59.9665 68.626 60.6828 69.2282 61.5479L70.0253 62.6928C70.1551 62.8793 70.1995 63.0877 70.1582 63.3178C70.117 63.548 70.0031 63.728 69.8166 63.8579L61.319 69.7737C61.5905 70.1638 61.9089 70.4584 62.2741 70.6574C62.6445 70.8276 63.0362 70.9201 63.4493 70.9347C63.8623 70.9493 64.2824 70.8835 64.7094 70.7373C65.1365 70.5911 65.5365 70.3881 65.9097 70.1283C66.4525 69.7505 66.858 69.3926 67.1264 69.0547C67.383 68.6998 67.5625 68.3608 67.6649 68.0377C67.757 67.7721 67.8447 67.5725 67.928 67.439C68.0113 67.3055 68.1547 67.1678 68.3583 67.0261L70.3936 65.6092C70.5802 65.4793 70.7886 65.435 71.0187 65.4762C71.2658 65.5056 71.4458 65.6195 71.5588 65.8179C71.7071 66.0672 71.784 66.4669 71.7893 67.0172C71.8116 67.5557 71.7008 68.1742 71.4569 68.8728C71.213 69.5714 70.815 70.3018 70.2627 71.064C69.7275 71.8143 68.9849 72.5201 68.0351 73.1814C67.0853 73.8426 66.1081 74.2837 65.1035 74.5046C64.1041 74.6967 63.1205 74.6764 62.1526 74.4437C61.1848 74.2109 60.2674 73.7793 59.4005 73.149C58.5217 72.5016 57.7281 71.6691 57.0196 70.6515ZM60.5961 62.4958C60.1043 62.8382 59.7334 63.2097 59.4834 63.6103C59.2387 63.9822 59.0802 64.3695 59.0081 64.7723C58.9241 65.1581 58.9147 65.5424 58.9797 65.9252C59.0499 66.2792 59.1566 66.5953 59.2998 66.8733L65.0497 62.8704C64.8386 62.6396 64.5878 62.4239 64.2971 62.2234C64.0115 61.9941 63.6818 61.846 63.3078 61.779C62.9389 61.6832 62.5292 61.6915 62.0785 61.8037C61.633 61.8872 61.1389 62.1179 60.5961 62.4958ZM65.1893 43.3738C70.0423 43.3738 73.9765 39.4397 73.9765 34.5866C73.9765 29.7336 70.0423 25.7995 65.1893 25.7995C60.3363 25.7995 56.4021 29.7336 56.4021 34.5866C56.4021 39.4397 60.3363 43.3738 65.1893 43.3738Z" fill="white"/>
<path fill-rule="evenodd" clip-rule="evenodd" d="M67.3861 35.6852C58.965 17.7447 78.9192 -6.60315 87.7064 3.28244C96.4937 13.168 83.8621 18.1108 78.37 18.1108" stroke="white" stroke-width="2"/>
</svg>
