<svg width="120" height="123" viewBox="0 0 120 123" fill="none" xmlns="http://www.w3.org/2000/svg">
<path fill-rule="evenodd" clip-rule="evenodd" d="M46 33.0336C71.5195 24.8799 122.034 17.2586 119.937 52.0035C119.937 56.4964 119.937 97.5234 92.6692 95.0274C85.328 95.0274 65.9262 85.4505 71.6943 63.4854C71.4368 62.8317 71.2917 61.8972 71.1119 60.7388C70.1928 54.8195 68.3659 43.0536 46 33.0336ZM100.498 48.8727C99.6104 48.3927 98.5784 48.0447 97.4024 47.8287V45.3087C97.4024 45.0447 97.3064 44.8167 97.1144 44.6247C96.9224 44.4327 96.6944 44.3367 96.4304 44.3367H93.5144C93.2504 44.3367 93.0224 44.4327 92.8304 44.6247C92.6384 44.8167 92.5424 45.0447 92.5424 45.3087V47.7567C91.4864 47.9487 90.5144 48.2607 89.6264 48.6927C88.7384 49.1007 87.9704 49.6287 87.3224 50.2767C86.6984 50.9007 86.2064 51.6087 85.8464 52.4007C85.4864 53.1927 85.3064 54.0567 85.3064 54.9927C85.3064 56.0727 85.4504 57.0087 85.7384 57.8007C86.0264 58.5687 86.4584 59.2407 87.0344 59.8167C87.6344 60.3927 88.3784 60.8847 89.2664 61.2927C90.1784 61.6767 91.2344 62.0127 92.4344 62.3007C93.7544 62.6367 94.9184 62.9127 95.9264 63.1287C96.9344 63.3447 97.7744 63.5727 98.4464 63.8127C99.1424 64.0527 99.6584 64.3407 99.9944 64.6767C100.33 65.0127 100.498 65.4447 100.498 65.9727C100.498 66.5247 100.342 66.9927 100.03 67.3767C99.7184 67.7367 99.3104 68.0487 98.8064 68.3127C98.3024 68.5527 97.7144 68.7327 97.0424 68.8527C96.3704 68.9487 95.6744 68.9967 94.9544 68.9967C94.0424 68.9967 93.2744 68.9247 92.6504 68.7807C92.0504 68.6127 91.5464 68.4087 91.1384 68.1687C90.7304 67.9287 90.4064 67.6527 90.1664 67.3407C89.9264 67.0287 89.7224 66.7167 89.5544 66.4047C89.4104 66.1167 89.2304 65.9007 89.0144 65.7567C88.7984 65.6127 88.4864 65.5407 88.0784 65.5407H85.5584C85.2944 65.5407 85.0544 65.6367 84.8384 65.8287C84.6464 65.9967 84.5624 66.2247 84.5864 66.5127C84.6344 67.4247 84.8744 68.2647 85.3064 69.0327C85.7384 69.7767 86.3024 70.4367 86.9984 71.0127C87.7184 71.5887 88.5464 72.0807 89.4824 72.4887C90.4424 72.8727 91.4624 73.1487 92.5424 73.3167V75.7647C92.5424 76.0287 92.6384 76.2567 92.8304 76.4487C93.0224 76.6407 93.2504 76.7367 93.5144 76.7367H96.4304C96.6944 76.7367 96.9224 76.6407 97.1144 76.4487C97.3064 76.2567 97.4024 76.0287 97.4024 75.7647V73.3167C98.6504 73.1487 99.7664 72.8487 100.75 72.4167C101.734 71.9847 102.562 71.4447 103.234 70.7967C103.93 70.1487 104.458 69.4167 104.818 68.6007C105.178 67.7847 105.358 66.9087 105.358 65.9727C105.358 64.9887 105.214 64.1127 104.926 63.3447C104.662 62.5767 104.206 61.9047 103.558 61.3287C102.934 60.7287 102.118 60.2247 101.11 59.8167C100.126 59.3847 98.9144 59.0127 97.4744 58.7007C96.1544 58.4127 95.0264 58.1607 94.0904 57.9447C93.1784 57.7287 92.4224 57.5007 91.8224 57.2607C91.2464 56.9967 90.8264 56.6967 90.5624 56.3607C90.2984 56.0007 90.1664 55.5447 90.1664 54.9927C90.1664 54.5367 90.2864 54.1287 90.5264 53.7687C90.7664 53.4087 91.0904 53.1087 91.4984 52.8687C91.9304 52.6047 92.4224 52.4127 92.9744 52.2927C93.5504 52.1487 94.1504 52.0767 94.7744 52.0767C96.2144 52.0767 97.2944 52.3047 98.0144 52.7607C98.7584 53.1927 99.3104 53.7087 99.6704 54.3087C99.8384 54.5727 100.018 54.7887 100.21 54.9567C100.426 55.1007 100.738 55.1727 101.146 55.1727H103.666C103.93 55.1727 104.158 55.0887 104.35 54.9207C104.566 54.7287 104.662 54.4887 104.638 54.2007C104.59 53.6247 104.41 53.0127 104.098 52.3647C103.786 51.6927 103.33 51.0567 102.73 50.4567C102.13 49.8567 101.386 49.3287 100.498 48.8727Z" fill="white"/>
<path fill-rule="evenodd" clip-rule="evenodd" d="M12 18.1367H6C8 16.8033 12 13.7367 12 12.1367C11.7709 11.6784 11.4214 9.99513 11.102 8.2334C10.7334 6.20028 12.0333 4.25334 14.0379 3.7522L28.5652 0.120375C30.7294 -0.420689 32.918 0.913224 33.429 3.08479L34.5 7.63666L34.2562 7.69017C37.1027 10.25 38 13.3276 38 18.1367C38 25.3164 32.1797 31.1367 25 31.1367C17.8203 31.1367 12 25.3164 12 18.1367ZM14 12.2437C14.0286 12.2016 14.0574 12.1596 14.0865 12.1177L14 12.1367V12.2437Z" fill="white"/>
<path d="M22.5 41.0262C13.3 39.4262 11 45.0262 11 48.0262C20 69.5261 33 63.5263 34.5 62.5263C36 62.5263 38.5 70.5263 38.5 72.0263C15.5 72.0263 18 86.0263 18 88.0263C19 98.5263 26 109.026 29 112.526C40.5 118.026 42 108.026 42 107.026C34 98.0263 33.5 89.5263 33 88.0263C35.5 86.5263 52.5 88.5263 53 89.5263C54.5 99.0263 69.5 118.026 73 121.526C83.4 124.726 85 116.86 84.5 112.526C80.6667 107.36 72.7 96.6263 71.5 95.0263C64 90.0263 65.5 70.5263 65.5 67.0263C63 46.5263 44.5 34.5263 42 32.5263C27.5 27.0263 22.5 39.5262 22.5 41.0262Z" fill="white"/>
<path d="M14 65.5263L0 52.5263H11L14 55.5263V65.5263Z" fill="white"/>
</svg>
