<svg width="67" height="14" viewBox="0 0 67 14" fill="none" xmlns="http://www.w3.org/2000/svg">
<path d="M2.61889 13H0.185945V1.33781H6.87056V3.36394H2.61889V6.37122H6.57542V8.38937H2.61889V13ZM13.9381 3.91434C14.2678 3.91434 14.5417 3.93827 14.7597 3.98613L14.5762 6.26752C14.3795 6.21434 14.1402 6.18775 13.8583 6.18775C13.0819 6.18775 12.4756 6.38717 12.0396 6.78602C11.6088 7.18486 11.3935 7.74324 11.3935 8.46116V13H8.96051V4.08186H10.8032L11.1621 5.58151H11.2818C11.5583 5.08162 11.9306 4.68012 12.3985 4.377C12.8718 4.06856 13.385 3.91434 13.9381 3.91434ZM20.0723 5.64532C19.5565 5.64532 19.1523 5.81018 18.8598 6.13989C18.5673 6.46428 18.3998 6.92694 18.3573 7.52787H21.7714C21.7607 6.92694 21.6038 6.46428 21.3007 6.13989C20.9976 5.81018 20.5881 5.64532 20.0723 5.64532ZM20.4153 13.1595C18.9795 13.1595 17.8574 12.7634 17.0491 11.971C16.2407 11.1786 15.8366 10.0565 15.8366 8.60474C15.8366 7.11041 16.2088 5.95642 16.9533 5.14278C17.7032 4.32382 18.7375 3.91434 20.0563 3.91434C21.3167 3.91434 22.2978 4.2733 22.9998 4.99122C23.7018 5.70914 24.0527 6.70093 24.0527 7.96659V9.14717H18.3014C18.328 9.8385 18.5328 10.3783 18.9156 10.7665C19.2985 11.1547 19.8356 11.3488 20.527 11.3488C21.0641 11.3488 21.5719 11.2929 22.0506 11.1813C22.5292 11.0696 23.0291 10.8914 23.5502 10.6468V12.5294C23.1248 12.7421 22.6701 12.899 22.1862 13C21.7022 13.1064 21.1119 13.1595 20.4153 13.1595ZM29.7243 5.64532C29.2085 5.64532 28.8043 5.81018 28.5118 6.13989C28.2193 6.46428 28.0518 6.92694 28.0093 7.52787H31.4234C31.4127 6.92694 31.2559 6.46428 30.9527 6.13989C30.6496 5.81018 30.2401 5.64532 29.7243 5.64532ZM30.0673 13.1595C28.6315 13.1595 27.5094 12.7634 26.7011 11.971C25.8927 11.1786 25.4886 10.0565 25.4886 8.60474C25.4886 7.11041 25.8608 5.95642 26.6053 5.14278C27.3552 4.32382 28.3895 3.91434 29.7084 3.91434C30.9687 3.91434 31.9499 4.2733 32.6518 4.99122C33.3538 5.70914 33.7048 6.70093 33.7048 7.96659V9.14717H27.9534C27.98 9.8385 28.1848 10.3783 28.5677 10.7665C28.9505 11.1547 29.4877 11.3488 30.179 11.3488C30.7161 11.3488 31.224 11.2929 31.7026 11.1813C32.1812 11.0696 32.6811 10.8914 33.2022 10.6468V12.5294C32.7768 12.7421 32.3221 12.899 31.8382 13C31.3542 13.1064 30.764 13.1595 30.0673 13.1595Z" fill="white"/>
<path d="M42.7585 9.76139C42.7585 10.8143 42.3783 11.6439 41.6178 12.2502C40.8627 12.8564 39.8097 13.1595 38.459 13.1595C37.2146 13.1595 36.1138 12.9255 35.1566 12.4576V10.1602C35.9436 10.5112 36.6083 10.7585 37.1508 10.9021C37.6985 11.0457 38.1984 11.1175 38.6504 11.1175C39.1929 11.1175 39.6077 11.0138 39.8948 10.8064C40.1873 10.599 40.3335 10.2905 40.3335 9.88104C40.3335 9.65237 40.2697 9.45029 40.1421 9.2748C40.0145 9.09399 39.8257 8.92116 39.5757 8.7563C39.3311 8.59145 38.8286 8.32821 38.0681 7.96659C37.3555 7.63156 36.8211 7.30983 36.4648 7.00139C36.1085 6.69295 35.824 6.33399 35.6112 5.92451C35.3985 5.51503 35.2922 5.03642 35.2922 4.48868C35.2922 3.457 35.6405 2.64602 36.3371 2.05573C37.0391 1.46544 38.007 1.1703 39.2407 1.1703C39.847 1.1703 40.424 1.24209 40.9717 1.38567C41.5248 1.52926 42.1018 1.73134 42.7027 1.99192L41.905 3.91434C41.2828 3.65908 40.767 3.48093 40.3575 3.37989C39.9533 3.27885 39.5545 3.22833 39.1609 3.22833C38.693 3.22833 38.334 3.33735 38.0841 3.55538C37.8341 3.77342 37.7092 4.05793 37.7092 4.40891C37.7092 4.62694 37.7597 4.81839 37.8607 4.98324C37.9618 5.14278 38.1213 5.29966 38.3393 5.45388C38.5627 5.60278 39.0865 5.87399 39.9108 6.26752C41.0009 6.78868 41.7481 7.31249 42.1523 7.83896C42.5564 8.36012 42.7585 9.00093 42.7585 9.76139ZM46.6193 8.52497C46.6193 9.40775 46.7629 10.0751 47.0501 10.5272C47.3426 10.9792 47.8159 11.2052 48.47 11.2052C49.1187 11.2052 49.5841 10.9819 49.8659 10.5351C50.1531 10.0831 50.2967 9.41307 50.2967 8.52497C50.2967 7.6422 50.1531 6.98012 49.8659 6.53873C49.5787 6.09735 49.1081 5.87665 48.454 5.87665C47.8052 5.87665 47.3372 6.09735 47.0501 6.53873C46.7629 6.9748 46.6193 7.63688 46.6193 8.52497ZM52.7854 8.52497C52.7854 9.97677 52.4026 11.1121 51.6368 11.9311C50.871 12.7501 49.8048 13.1595 48.438 13.1595C47.5819 13.1595 46.8267 12.9734 46.1726 12.6012C45.5185 12.2236 45.016 11.6838 44.665 10.9819C44.314 10.2799 44.1385 9.46093 44.1385 8.52497C44.1385 7.06787 44.5187 5.93515 45.2792 5.12683C46.0397 4.3185 47.1086 3.91434 48.4859 3.91434C49.3421 3.91434 50.0972 4.10047 50.7513 4.47272C51.4054 4.84498 51.908 5.37943 52.259 6.07607C52.61 6.77272 52.7854 7.58902 52.7854 8.52497ZM59.7253 5.90856H57.6194V13H55.1865V5.90856H53.8464V4.73596L55.1865 4.08186V3.42775C55.1865 2.41203 55.4364 1.67018 55.9363 1.20221C56.4362 0.734229 57.2365 0.50024 58.3373 0.50024C59.1776 0.50024 59.9247 0.625211 60.5789 0.875153L59.9567 2.66197C59.4674 2.50775 59.0154 2.43064 58.6006 2.43064C58.2549 2.43064 58.005 2.53434 57.8508 2.74174C57.6965 2.94382 57.6194 3.2044 57.6194 3.52348V4.08186H59.7253V5.90856ZM64.8864 11.2212C65.3118 11.2212 65.8223 11.1281 66.4179 10.942V12.7527C65.8117 13.0239 65.0672 13.1595 64.1844 13.1595C63.2112 13.1595 62.5013 12.9149 62.0546 12.4257C61.6132 11.9311 61.3925 11.1919 61.3925 10.2081V5.90856H60.2279V4.87954L61.568 4.0659L62.2699 2.18336H63.8254V4.08186H66.3222V5.90856H63.8254V10.2081C63.8254 10.5538 63.9212 10.809 64.1126 10.9739C64.3094 11.1387 64.5673 11.2212 64.8864 11.2212Z" fill="#FD6F29"/>
</svg>
