<svg width="202" height="91" viewBox="0 0 202 91" fill="none" xmlns="http://www.w3.org/2000/svg">
<path d="M51.5883 44.0916C45.3694 41.9359 42.9964 47.2698 42.5873 50.2062C49.6449 42.7443 57.6231 53.8335 58.1345 54.2481C63.8625 55.699 64.8853 52.6935 64.8853 52.1753C60.8962 52.5899 53.1226 44.8171 51.5883 44.0916Z" fill="white"/>
<path fill-rule="evenodd" clip-rule="evenodd" d="M39.574 32.2376C40.2193 30.9179 42.3861 28.0958 45.891 27.3649C46.2985 26.6543 47.2155 25.1316 48.642 24.624C48.4382 25.0301 48.3363 27.2634 48.642 27.8725C49.0495 28.0755 53.0231 30.8164 54.042 32.2376C53.9401 31.1209 53.125 26.9588 49.9665 23.1013C50.8835 23.8119 57.4043 29.9027 57.8118 35.9936C58.2194 36.2981 72.1779 47.2616 70.344 49.2919C69.6307 50.0025 68.2043 51.1191 66.0647 51.6267C66.4722 50.9161 69.7326 45.1298 47.3174 34.8769C47.291 34.789 47.263 34.6685 47.2294 34.5239C46.8754 32.9987 45.9025 28.8067 39.574 32.2376ZM49.1844 33.1245C49.9714 34.2863 50.6705 34.6489 51.2768 34.2412C51.8832 33.8334 51.8054 33.2712 51.0184 32.1094C50.2315 30.9476 49.3604 30.3081 48.754 30.7158C48.1477 31.1235 48.3975 31.9627 49.1844 33.1245Z" fill="white"/>
<path d="M38.5946 16.6375C34.2555 16.0135 31.8148 12.0696 31.1368 10.1756C41.0806 7.16745 51.8152 10.1756 52.6062 10.1756C50.2333 14.1864 47.0694 17.3059 46.6174 17.863C53.5102 17.4173 56.4481 18.9771 56.4481 19.1999C54.4142 21.7624 50.6853 21.9852 49.8943 21.8738C49.4423 19.0885 46.0524 18.5315 44.9224 18.3086C46.9564 16.7489 48.0863 13.4065 48.3123 12.8495C42.2105 13.7407 38.8206 16.3032 38.5946 16.6375Z" fill="white"/>
<path d="M33.1457 19.0082C33.136 18.9755 33.1255 18.9422 33.1142 18.9085C32.5248 17.9146 23.8303 15.509 21.6488 15.0144C23.7018 16.3457 22.8806 20.4418 23.1886 21.5682C19.4932 18.8033 14.258 20.4418 12.3076 20.4418C14.3606 21.5047 13.7586 24.9475 12.3076 26.4836C-5.78176 45.633 4.81413 62.5295 5.63534 64.8848C-5.75887 49.4219 2.94348 30.9341 7.25487 28.0196C11.5662 25.1052 10.152 20.8514 9.63871 19.9298C12.4103 16.9601 18.8773 18.1889 19.5958 18.1889C19.9038 15.7313 19.0826 13.9904 17.8508 12.4543C28.4396 12.6963 32.4049 16.7942 33.1142 18.9085C33.135 18.9435 33.1457 18.9768 33.1457 19.0082Z" fill="white"/>
<path d="M42.1855 69.5242C37.6024 61.3565 38.2299 48.8325 39.1165 43.5916C34.9221 50.9425 36.9681 62.7858 37.3773 63.3984C36.4566 62.99 32.9784 59.1103 32.4669 58.5998C30.9323 63.8068 32.4669 75.0375 32.4669 75.7522C24.1804 72.9955 20.5999 64.6236 20.0884 63.8068C24.9989 80.0402 35.6382 80.3465 36.4566 80.7549C35.3313 78.9172 35.4336 65.6445 35.3313 65.032C36.6612 66.5634 40.7533 68.2991 42.1855 69.5242Z" fill="white"/>
<path d="M61.6711 83.3856C30.9289 109.06 -17.5007 58.1316 25.3651 29.9314C3.13454 69.075 -1.91898 107.798 61.6711 83.3856Z" fill="white"/>
<path d="M70.5099 77.7786C70.5099 74.9472 71.1763 72.4975 72.5091 70.4293C73.8418 68.3612 75.4955 66.8593 77.47 65.9237C79.4445 64.9635 81.5671 64.4834 83.8377 64.4834C85.6395 64.4834 87.3301 64.7788 88.9097 65.3697C90.4893 65.9606 91.9085 66.9455 93.1672 68.3242C94.426 69.703 95.2775 71.3895 95.7217 73.3838H89.1318C88.5642 72.3744 87.8608 71.648 87.0216 71.2049C86.1824 70.7617 85.1212 70.5401 83.8377 70.5401C81.8139 70.5401 80.2219 71.2295 79.0619 72.6083C77.9266 73.987 77.3589 75.6982 77.3589 77.7417C77.3589 79.9083 77.9389 81.6318 79.0989 82.912C80.2836 84.1923 81.8632 84.8325 83.8377 84.8325C85.2446 84.8325 86.3799 84.6109 87.2437 84.1677C88.1076 83.6999 88.8357 82.8751 89.428 81.6933H83.9118V76.0059H96.129C96.3511 78.985 96.1166 81.484 95.4256 83.5029C94.537 86.0635 93.0315 87.9593 90.9089 89.1903C88.811 90.3968 86.4539 91 83.8377 91C82.1594 91 80.5305 90.7168 78.9509 90.1505C77.3959 89.5843 75.9768 88.7718 74.6934 87.7131C73.4346 86.6544 72.4227 85.2633 71.6576 83.5399C70.8924 81.8164 70.5099 79.896 70.5099 77.7786Z" fill="white"/>
<path d="M110.554 91C107.641 91 105.148 90.2121 103.075 88.6364C101.027 87.0606 100.002 84.894 100.002 82.1365V64.8158H106.777V81.9888C106.777 82.9982 107.148 83.7615 107.888 84.2785C108.628 84.7955 109.529 85.054 110.591 85.054C111.603 85.054 112.479 84.7955 113.219 84.2785C113.96 83.7615 114.33 82.9982 114.33 81.9888V64.8158H121.031V82.1365C121.031 84.894 120.006 87.0606 117.958 88.6364C115.909 90.2121 113.441 91 110.554 91Z" fill="white"/>
<path d="M141.069 87.4546H131.37L129.889 90.6676H122.818V89.7443L134.702 64.5573H137.811L149.584 89.7443V90.6676H142.587L141.069 87.4546ZM136.22 75.5627L133.554 81.8041H138.922L136.22 75.5627Z" fill="white"/>
<path d="M168.88 81.4717L173.952 89.6704V90.6306H166.77L162.327 82.5427H158.773V90.6306H151.998V64.7788H163.401C166.338 64.7788 168.621 65.6898 170.25 67.5118C171.903 69.3337 172.73 71.4757 172.73 73.9378C172.681 77.237 171.397 79.7483 168.88 81.4717ZM158.662 77.04H163.364C164.252 77.04 164.943 76.7199 165.437 76.0798C165.931 75.4396 166.177 74.6764 166.177 73.79C166.177 72.9037 165.931 72.1651 165.437 71.5742C164.968 70.9587 164.277 70.6509 163.364 70.6509H158.662V77.04Z" fill="white"/>
<path d="M192.77 87.4546H183.07L181.589 90.6676H174.518V89.7443L186.402 64.5573H189.512L201.285 89.7443V90.6676H194.288L192.77 87.4546ZM187.92 75.5627L185.254 81.8041H190.622L187.92 75.5627Z" fill="white"/>
<path d="M65.8896 33.4296C74.0818 23.257 91.5527 2.32956 95.8993 0C97.1777 1.98231 119.51 35.9432 124.998 39.7574C126.267 35.8889 131.277 24.807 133.562 23.5195C134.532 25.2251 141.534 41.249 144.384 45.1986C146.83 42.4985 155.02 33.0477 158.81 28.6598C167.169 37.5089 183.727 54.3443 189.031 57.3112C181.539 54.177 162.238 39.7727 160.759 37.9217C161.409 41.399 161.413 46.7624 161.333 49.0095C159.209 49.6061 154.242 50.5438 151.367 49.5211C150.781 49.5512 150.119 55.9124 151.367 57.3112C146.97 57.5369 125.125 64.911 96.4737 11.0878C96.6702 14.881 95.0081 37.4884 100.04 49.5177C97.2656 47.027 86.4326 38.5188 81.3286 36.4403C81.3286 36.4403 84.2008 26.2908 65.8896 33.4296Z" fill="#0092D6"/>
</svg>
