<svg width="165" height="75" viewBox="0 0 165 75" fill="none" xmlns="http://www.w3.org/2000/svg">
<path d="M42.2886 36.1435C37.1908 34.3765 35.2455 38.7488 34.9102 41.1559C40.6955 35.0391 47.2355 44.1293 47.6548 44.4692C52.3501 45.6585 53.1886 43.1948 53.1886 42.7701C49.9186 43.1099 43.5463 36.7382 42.2886 36.1435Z" fill="#3A3A3A"/>
<path fill-rule="evenodd" clip-rule="evenodd" d="M32.4401 26.4265C32.969 25.3448 34.7452 23.0314 37.6183 22.4323C37.9524 21.8498 38.7041 20.6015 39.8734 20.1855C39.7064 20.5183 39.6228 22.349 39.8734 22.8483C40.2075 23.0148 43.4648 25.2615 44.3 26.4265C44.2165 25.5112 43.5483 22.0994 40.9592 18.9373C41.7108 19.5198 47.0562 24.5126 47.3902 29.5055C47.7243 29.7551 59.1666 38.7423 57.6633 40.4066C57.0786 40.9891 55.9093 41.9044 54.1554 42.3205C54.4895 41.738 57.1621 36.9948 38.7876 28.5901C38.7659 28.5181 38.743 28.4192 38.7155 28.3007C38.4253 27.0505 37.6278 23.6142 32.4401 26.4265ZM40.3181 27.1536C40.9632 28.106 41.5363 28.4032 42.0333 28.069C42.5303 27.7347 42.4666 27.2738 41.8215 26.3215C41.1764 25.3691 40.4623 24.8449 39.9653 25.1791C39.4682 25.5133 39.673 26.2012 40.3181 27.1536Z" fill="#3A3A3A"/>
<path d="M31.6374 13.6386C28.0806 13.1271 26.0798 9.89412 25.524 8.34154C33.6752 5.87568 42.4748 8.34154 43.1232 8.34154C41.1781 11.6294 38.5845 14.1865 38.214 14.6432C43.8642 14.2779 46.2726 15.5565 46.2726 15.7391C44.6053 17.8397 41.5486 18.0223 40.9002 17.931C40.5297 15.6478 37.7508 15.1911 36.8246 15.0085C38.4919 13.7299 39.4181 10.9901 39.6034 10.5334C34.6015 11.264 31.8227 13.3646 31.6374 13.6386Z" fill="#3A3A3A"/>
<path d="M27.1707 15.5821C27.1627 15.5553 27.1541 15.528 27.1449 15.5004C26.6616 14.6857 19.5345 12.7137 17.7463 12.3083C19.4292 13.3996 18.756 16.7573 19.0085 17.6807C15.9792 15.4142 11.6877 16.7573 10.089 16.7573C11.7719 17.6286 11.2784 20.4508 10.089 21.71C-4.73951 37.4074 3.94631 51.2581 4.61948 53.1888C-4.72075 40.5133 2.41287 25.3582 5.94706 22.9691C9.48125 20.5801 8.32191 17.0931 7.90118 16.3376C10.1731 13.9032 15.4743 14.9105 16.0634 14.9105C16.3158 12.8959 15.6426 11.4689 14.6329 10.2097C23.3129 10.408 26.5634 13.7672 27.1449 15.5004C27.1619 15.5291 27.1707 15.5564 27.1707 15.5821Z" fill="#3A3A3A"/>
<path d="M34.5808 56.9915C30.8239 50.2961 31.3382 40.0299 32.065 35.7336C28.6268 41.7595 30.3039 51.4678 30.6394 51.97C29.8846 51.6352 27.0334 48.4549 26.6141 48.0364C25.3562 52.3048 26.6141 61.5109 26.6141 62.0968C19.8214 59.8371 16.8863 52.9743 16.467 52.3048C20.4923 65.6119 29.2138 65.8629 29.8846 66.1977C28.9622 64.6913 29.046 53.8112 28.9622 53.3091C30.0524 54.5645 33.4068 55.9872 34.5808 56.9915Z" fill="#3A3A3A"/>
<path d="M50.5539 68.3543C25.3534 89.4009 -14.346 47.6528 20.7926 24.5361C2.56942 56.6235 -1.57312 88.3658 50.5539 68.3543Z" fill="#3A3A3A"/>
<path d="M57.7994 63.7579C57.7994 61.4369 58.3457 59.4288 59.4382 57.7334C60.5308 56.0381 61.8863 54.807 63.5049 54.0401C65.1234 53.2529 66.8634 52.8594 68.7247 52.8594C70.2017 52.8594 71.5876 53.1016 72.8824 53.5859C74.1773 54.0703 75.3406 54.8776 76.3724 56.0078C77.4043 57.1381 78.1023 58.5206 78.4664 60.1553H73.0645C72.5992 59.3279 72.0225 58.7325 71.3347 58.3692C70.6468 58.0059 69.7768 57.8243 68.7247 57.8243C67.0657 57.8243 65.7607 58.3894 64.8098 59.5196C63.8792 60.6498 63.4138 62.0525 63.4138 63.7276C63.4138 65.5037 63.8893 66.9165 64.8402 67.966C65.8113 69.0154 67.1062 69.5402 68.7247 69.5402C69.878 69.5402 70.8086 69.3586 71.5167 68.9953C72.2249 68.6118 72.8217 67.9357 73.3073 66.9669H68.7854V62.3048H78.8003C78.9824 64.7469 78.7902 66.7954 78.2237 68.4503C77.4953 70.5493 76.2612 72.1034 74.5212 73.1125C72.8015 74.1014 70.8693 74.5959 68.7247 74.5959C67.349 74.5959 66.0136 74.3638 64.7188 73.8996C63.4442 73.4354 62.2808 72.7694 61.2288 71.9015C60.1969 71.0337 59.3674 69.8934 58.7402 68.4806C58.113 67.0678 57.7994 65.4936 57.7994 63.7579Z" fill="#3A3A3A"/>
<path d="M90.6246 74.5959C88.2372 74.5959 86.1938 73.9501 84.4943 72.6584C82.8151 71.3667 81.9754 69.5907 81.9754 67.3302V53.1318H87.5291V67.2091C87.5291 68.0366 87.8326 68.6623 88.4396 69.0861C89.0465 69.5099 89.785 69.7218 90.655 69.7218C91.4845 69.7218 92.2027 69.5099 92.8097 69.0861C93.4166 68.6623 93.7201 68.0366 93.7201 67.2091V53.1318H99.2131V67.3302C99.2131 69.5907 98.3735 71.3667 96.6942 72.6584C95.015 73.9501 92.9918 74.5959 90.6246 74.5959Z" fill="#3A3A3A"/>
<path d="M115.639 71.6896H107.688L106.474 74.3234H100.678V73.5666L110.42 52.9199H112.969L122.619 73.5666V74.3234H116.884L115.639 71.6896ZM111.664 61.9415L109.479 67.0577H113.879L111.664 61.9415Z" fill="#3A3A3A"/>
<path d="M138.437 66.7853L142.594 73.5061V74.2932H136.707L133.065 67.6632H130.152V74.2932H124.598V53.1016H133.945C136.353 53.1016 138.224 53.8483 139.56 55.3418C140.915 56.8353 141.593 58.5912 141.593 60.6094C141.552 63.3139 140.5 65.3725 138.437 66.7853ZM130.061 63.1524H133.915C134.643 63.1524 135.21 62.8901 135.614 62.3653C136.019 61.8406 136.221 61.2149 136.221 60.4884C136.221 59.7618 136.019 59.1563 135.614 58.6719C135.23 58.1674 134.663 57.9151 133.915 57.9151H130.061V63.1524Z" fill="#3A3A3A"/>
<path d="M158.02 71.6896H150.069L148.855 74.3234H143.058V73.5666L152.8 52.9199H155.349L165 73.5666V74.3234H159.264L158.02 71.6896ZM154.044 61.9415L151.859 67.0577H156.26L154.044 61.9415Z" fill="#3A3A3A"/>
<path d="M54.012 27.4034C60.7273 19.0646 75.0488 1.90962 78.6119 0C79.6598 1.62496 97.9665 29.4639 102.465 32.5905C103.505 29.4194 107.612 20.3351 109.485 19.2797C110.28 20.6778 116.02 33.8132 118.356 37.0508C120.362 34.8374 127.075 27.0903 130.182 23.4934C137.034 30.7474 150.608 44.5479 154.955 46.9799C148.814 44.4108 132.992 32.603 131.78 31.0857C132.313 33.9362 132.316 38.3328 132.25 40.1748C130.509 40.6638 126.437 41.4325 124.081 40.5941C123.6 40.6188 123.058 45.8333 124.081 46.9799C120.477 47.1649 102.57 53.2098 79.0828 9.08906C79.2439 12.1985 77.8813 30.7305 82.006 40.5913C79.7319 38.5497 70.8517 31.5752 66.6678 29.8714C66.6678 29.8714 69.0223 21.5514 54.012 27.4034Z" fill="white"/>
</svg>
