<svg width="17" height="24" viewBox="0 0 17 24" fill="none" xmlns="http://www.w3.org/2000/svg">
<path d="M3.33131 1.22146C1.48438 2.35652 0.411542 4.18437 0.0892779 6.68238C0.016345 7.24771 0.476233 7.7249 1.04625 7.7249H3.84242C4.39471 7.7249 4.8308 7.27123 4.95883 6.73399C5.08773 6.19311 5.32367 5.66509 5.66667 5.14993C6.21616 4.32462 7.14343 3.92847 8.41414 3.92847C9.75354 3.92847 10.6465 4.2586 11.1616 4.91885C11.6424 5.57909 11.8828 6.33838 11.8828 7.16369C11.8828 7.85695 11.6768 8.51719 11.2303 9.11142C10.9556 9.44154 10.6465 9.77166 10.2343 10.0688L9.03232 10.9601C7.8303 11.8845 7.07475 12.6768 6.76566 13.37C6.54675 13.9224 6.39324 14.831 6.30515 16.096C6.26575 16.6617 6.72194 17.1334 7.28905 17.1334H9.78384C10.3361 17.1334 10.7734 16.6845 10.8235 16.1345C10.8573 15.7629 10.9128 15.4596 10.9899 15.2187C11.196 14.5915 11.6081 14.0303 12.2606 13.5351L13.4626 12.6437C14.6646 11.7524 15.4889 10.9931 15.901 10.4319C16.6222 9.47455 17 8.28611 17 6.89959C17 4.62173 16.1758 2.90509 14.4929 1.74966C12.8444 0.594223 10.7495 0 8.20808 0C6.28485 0 4.67071 0.396149 3.33131 1.22146ZM10.1273 24C10.6796 24 11.1273 23.5523 11.1273 23V20.3453C11.1273 19.793 10.6796 19.3453 10.1273 19.3453H7.11313C6.56085 19.3453 6.11313 19.793 6.11313 20.3453V23C6.11313 23.5523 6.56085 24 7.11313 24H10.1273Z" fill="white"/>
</svg>








