<svg width="83" height="126" viewBox="0 0 83 126" fill="none" xmlns="http://www.w3.org/2000/svg">
<path d="M1.5 4C1.5 2.61929 2.61929 1.5 4 1.5H79C80.3807 1.5 81.5 2.61929 81.5 4V122C81.5 123.381 80.3807 124.5 79 124.5H4C2.61929 124.5 1.5 123.381 1.5 122V4Z" stroke="white" stroke-width="3"/>
<circle cx="11" cy="11" r="2" fill="white"/>
<circle cx="17" cy="11" r="2" fill="white"/>
<circle cx="23" cy="11" r="2" fill="white"/>
<path d="M17.5 32H66.5" stroke="white" stroke-width="2"/>
<path d="M56.073 56.962L50.7275 56.962M23.9999 56.962L48.4365 56.962L50.7275 56.962M50.7275 56.962L54.5457 62.3186M50.7275 56.962L54.5457 51.6055" stroke="white" stroke-width="1.5"/>
<path d="M49.2416 42.6782L46.5689 48.0903M41.755 56.9623L45.4234 50.4097L46.5689 48.0903M46.5689 48.0903L44.51 41.5463M46.5689 48.0903L52.446 46.9028" stroke="white" stroke-width="1.5"/>
<path d="M49.2416 71.4652L46.5689 66.0532M41.755 57.1811L45.4234 63.7337L46.5689 66.0532M46.5689 66.0532L44.51 72.5971M46.5689 66.0532L52.446 67.2406" stroke="white" stroke-width="1.5"/>
<path d="M26.927 56.962L32.2725 56.962M59.0001 56.962L34.5635 56.962L32.2725 56.962M32.2725 56.962L28.4543 62.3186M32.2725 56.962L28.4543 51.6055" stroke="white" stroke-width="1.5"/>
<path d="M33.7584 42.6782L36.4311 48.0903M41.245 56.9623L37.5766 50.4097L36.4311 48.0903M36.4311 48.0903L38.49 41.5463M36.4311 48.0903L30.554 46.9028" stroke="white" stroke-width="1.5"/>
<path d="M33.7584 71.4652L36.4311 66.0532M41.245 57.1811L37.5766 63.7337L36.4311 66.0532M36.4311 66.0532L38.49 72.5972M36.4311 66.0532L30.554 67.2406" stroke="white" stroke-width="1.5"/>
<path d="M12 97H30.5M12 105.5H30.5M12 114.5H30.5" stroke="white" stroke-width="2"/>
<path d="M53 97H71.5M53 105.5H71.5M53 114.5H71.5" stroke="white" stroke-width="2"/>
</svg>
