<svg width="127" height="122" viewBox="0 0 127 122" fill="none" xmlns="http://www.w3.org/2000/svg">
<rect x="88" y="72" width="26" height="10" rx="2" fill="white"/>
<rect x="83" y="84" width="36" height="10" rx="2" fill="white"/>
<rect x="78" y="96" width="45" height="10" rx="2" fill="white"/>
<path fill-rule="evenodd"  d="M52 55L65.3333 58L73.6667 109H127" stroke="white" fill="none" stroke-width="2"/>
<circle cx="88" cy="114" r="5" fill="white"/>
<circle cx="116" cy="114" r="5" fill="white"/>
<circle cx="16.5" cy="11.5" r="11.5" fill="white"/>
<path fill-rule="evenodd" clip-rule="evenodd" d="M34 60.1304C24.4 60.5304 19.3333 46.9637 18 40.1304C26.5 35.1304 32 48.1304 34 51.6304C60.5 50.1304 55.5 55.6304 55.5 57.6304C51 61.6304 38 59.6304 34 60.1304Z" fill="white"/>
<path fill-rule="evenodd" clip-rule="evenodd" d="M17 26C10.9249 26 6 30.9249 6 37V76.1235C6 80.4735 9.52645 84 13.8765 84H20.1235C24.4736 84 28 80.4735 28 76.1235V60.6758C21.0895 55.9208 17.2322 44.7631 16 38.3864C20.8122 35.5279 24.8327 37.4663 28 40.7854V37C28 30.9249 23.0751 26 17 26Z" fill="white"/>
<path fill-rule="evenodd" clip-rule="evenodd" d="M4.22222 98.5C5.42222 96.9 5.72222 86.1667 5.72222 81C9.22222 86.5 15.7222 85.5 16.2222 85C16.2222 86 16.7222 95.5 16.2222 100.5C12.7222 112.5 6.72222 121.5 4.22222 121C-5.27778 117 4.22222 99.5 4.22222 98.5Z" fill="white"/>
<path fill-rule="evenodd" clip-rule="evenodd" d="M26.6892 94C26.7905 92.0026 18.6324 81.2754 15.7459 76.9902C21.7215 79.5964 26.5538 75.1356 26.6891 74.4415C27.2478 75.2709 34.1213 86.0737 36.5 90.5C41.0001 114.5 36.5 117.705 35 118C24.8862 119.99 27.2478 94.8294 26.6892 94Z" fill="white"/>
</svg>
